<svg width="321" height="178" viewBox="0 0 321 178" fill="none" xmlns="http://www.w3.org/2000/svg">
<path d="M302.374 177.927C300.033 177.941 297.714 177.492 295.547 176.607C293.38 175.722 291.41 174.418 289.748 172.77L160.114 42.9587L30.4807 172.77C27.1322 176.119 22.5907 178 17.8552 178C13.1197 178 8.57815 176.119 5.22966 172.77C1.88117 169.422 0 164.88 0 160.145C0 155.409 1.88117 150.868 5.22966 147.519L147.489 5.26001C149.142 3.59329 151.109 2.27038 153.276 1.36759C155.443 0.464805 157.767 0 160.114 0C162.462 0 164.786 0.464805 166.953 1.36759C169.12 2.27038 171.087 3.59329 172.74 5.26001L314.999 147.519C316.666 149.172 317.989 151.139 318.892 153.306C319.795 155.473 320.259 157.797 320.259 160.145C320.259 162.492 319.795 164.817 318.892 166.984C317.989 169.15 316.666 171.117 314.999 172.77C313.338 174.418 311.367 175.722 309.201 176.607C307.034 177.492 304.714 177.941 302.374 177.927Z" fill="#FD0002"/>
</svg>
